# xmcd CD database file
#
# Track frame offsets:
#	150
#	19125
#	40000
#	61550
#	81820
#	101470
#	120372
#	134837
#	153110
#	171652
#	189575
#	211417
#	232622
#	261107
#	284450
#	306885
#
# Disc length: 4362 seconds
#
# Revision: 1
# Processed by: cddbd v1.5.2PL0 Copyright (c) Steve Scherf et al.
# Submitted via: CDex 1.70beta3
#
DISCID=d1110810
DTITLE=Various Artist - super collection DREAM melody of memories Disc 6
DYEAR=2004
DGENRE=J-Pop
TTITLE0=ワインレッドの心
TTITLE1=恋の予感
TTITLE2=夢の途中
TTITLE3=輝きながら・・・
TTITLE4=レイニーブルー
TTITLE5=い・け・な・いルージュマジック
TTITLE6=Ｒｏｍａｎｔｉｃが止まらない
TTITLE7=思い出がいっぱい
TTITLE8=愛は勝つ
TTITLE9=色つきの女でいてくれよ
TTITLE10=百万本のバラ
TTITLE11=シルエット・ロマンス
TTITLE12=最後の言い訳
TTITLE13=壊れかけのＲａｄｉｏ
TTITLE14=Ｇｏｏｄｂｙｅ　Ｄａｙ
TTITLE15=悲しみにさよなら
EXTD=YEAR: 2004
EXTT0=
EXTT1=
EXTT2=
EXTT3=
EXTT4=
EXTT5=
EXTT6=
EXTT7=
EXTT8=
EXTT9=
EXTT10=
EXTT11=
EXTT12=
EXTT13=
EXTT14=
EXTT15=
PLAYORDER=
